<svg width="96" height="24" viewBox="0 0 96 24" fill="none" xmlns="http://www.w3.org/2000/svg">
<path d="M8.29286 24C5.62343 23.3082 3.31979 21.6186 1.85516 19.2783C0.39053 16.938 -0.123883 14.1247 0.417596 11.4162C0.959075 8.7078 2.51533 6.30991 4.76667 4.71517C7.01801 3.12042 9.79349 2.4499 12.523 2.84135L7.93542 22.1969C8.18499 22.2562 8.43457 22.3071 8.68203 22.3473L8.29286 24Z" fill="#0A3F2F"/>
<path d="M13.8322 0C16.5016 0.691775 18.8052 2.38136 20.2698 4.72167C21.7345 7.06199 22.2489 9.87533 21.7074 12.5838C21.1659 15.2922 19.6097 17.6901 17.3583 19.2848C15.107 20.8796 12.3315 21.5501 9.60205 21.1586L14.1875 1.80101C13.94 1.74168 13.6904 1.69295 13.4409 1.65057L13.8322 0Z" fill="#0A3F2F"/>
<path d="M36.2435 21.2053C34.904 21.2226 33.5715 21.0075 32.3052 20.5696C31.1617 20.1726 30.1084 19.5518 29.2067 18.7432C28.3445 17.9633 27.6569 17.0094 27.1889 15.9442C26.7017 14.8187 26.4573 13.6028 26.4719 12.3761C26.4558 11.1253 26.7 9.88484 27.1889 8.73382C27.6567 7.6538 28.3438 6.68324 29.2067 5.88399C30.1027 5.05993 31.157 4.42764 32.3052 4.02578C33.5715 3.58786 34.904 3.3728 36.2435 3.39013C37.0589 3.38955 37.8727 3.46045 38.6758 3.60201C39.4605 3.73761 40.2329 3.93673 40.9854 4.1974C41.6178 4.41067 42.2216 4.70101 42.7832 5.06189V8.34608H40.9854C41.0147 7.61172 40.8005 6.88831 40.3763 6.28869C39.9108 5.6607 39.2793 5.1756 38.5531 4.88814C37.6414 4.52537 36.6657 4.35166 35.6851 4.3775C34.7785 4.36691 33.8924 4.64842 33.1576 5.18054C32.3837 5.75108 31.782 6.52463 31.419 7.41591C30.9867 8.46074 30.7757 9.58413 30.7993 10.7149C30.7777 12.2939 31.0325 13.8644 31.5523 15.3552C31.9797 16.6212 32.6901 17.7728 33.6293 18.722C34.4454 19.5486 35.5077 20.087 36.6559 20.256C37.2128 20.2548 37.7648 20.1514 38.2845 19.9509C38.775 19.7749 39.2165 19.4844 39.5726 19.1034L39.5006 19.2962V14.5331L39.6212 14.6793L36.3408 13.8995V13.4122H45.0696V13.836L43.441 14.7386L43.5383 14.567V19.5483C42.9468 19.9234 42.3061 20.2143 41.6347 20.4128C40.7934 20.6779 39.9318 20.8735 39.0586 20.9976C38.1266 21.1358 37.1857 21.2052 36.2435 21.2053Z" fill="#0A3F2F"/>
<path d="M53.1638 21.2053C51.9515 21.2312 50.7535 20.939 49.6888 20.3577C48.7013 19.8084 47.8851 18.9958 47.3305 18.0101C46.7505 16.9556 46.4586 15.7664 46.4845 14.5627C46.4601 13.4136 46.7528 12.2801 47.3305 11.287C47.8948 10.3391 48.7114 9.56733 49.6888 9.058C50.7632 8.50693 51.9571 8.23103 53.1638 8.25497C54.3448 8.23221 55.5133 8.49994 56.5669 9.0347C57.5213 9.52526 58.3252 10.2655 58.8935 11.1768C59.4683 12.1222 59.7619 13.2123 59.7395 14.3191C59.7653 15.5652 59.4742 16.7975 58.8935 17.8999C58.3553 18.9096 57.5505 19.7518 56.5669 20.3344C55.5327 20.9294 54.3561 21.2304 53.1638 21.2053ZM53.6757 20.2306C54.2749 20.2306 54.7402 19.7842 55.0716 18.8915C55.403 17.9988 55.5693 16.7275 55.5707 15.0776C55.5707 13.1961 55.3198 11.7517 54.8178 10.7446C54.3158 9.73744 53.6023 9.23387 52.6774 9.23387C52.0471 9.23387 51.5536 9.63574 51.1968 10.4395C50.8401 11.2432 50.6617 12.3916 50.6617 13.8847C50.6617 15.9145 50.9254 17.4818 51.4527 18.5864C51.9801 19.691 52.7211 20.2391 53.6757 20.2306Z" fill="#0A3F2F"/>
<path d="M60.7968 20.8154V20.3048L62.7427 19.5483L62.62 19.72V10.4903L62.7427 10.6598L60.7017 10.1704V9.51355L66.2939 8.24225L66.5371 8.72959L66.4652 10.3124H66.3679L67.8019 8.21895C68.1593 8.13128 68.5286 8.10194 68.8954 8.13208C69.3644 8.16413 69.8266 8.26257 70.268 8.42447C70.7718 8.6109 71.2375 8.88729 71.6428 9.24022L70.3738 12.2617C69.9897 11.892 69.551 11.5839 69.073 11.3485C68.6819 11.1366 68.2482 11.0156 67.804 10.9946C67.6185 11.0069 67.439 11.0652 67.2816 11.1641C67.0356 11.3117 66.8108 11.4921 66.6132 11.7002C66.5242 11.7731 66.4428 11.8547 66.37 11.9439C66.2727 12.0583 66.1902 12.1557 66.1268 12.2129L66.4906 11.6027V19.72L66.37 19.5483L68.411 20.3281V20.8154H60.7968Z" fill="#0A3F2F"/>
<path d="M71.6154 20.8154V20.3048L73.5612 19.5483L73.4385 19.72V10.4903L73.5612 10.6598L71.5181 10.1704V9.51355L77.1103 8.24225L77.3535 8.72959L77.2795 10.3124H77.1822L78.6183 8.21895C78.9757 8.13128 79.345 8.10194 79.7118 8.13208C80.1808 8.16413 80.643 8.26257 81.0844 8.42447C81.5882 8.6109 82.0539 8.88729 82.4592 9.24022L81.1902 12.2617C80.8061 11.892 80.3674 11.5839 79.8894 11.3485C79.4983 11.1366 79.0646 11.0156 78.6204 10.9946C78.4343 11.0071 78.2542 11.0653 78.0959 11.1641C77.8506 11.3127 77.6259 11.4929 77.4275 11.7002C77.339 11.7736 77.2576 11.8552 77.1843 11.9439C77.0891 12.0583 77.0066 12.1557 76.9432 12.2129L77.307 11.6027V19.72L77.1843 19.5483L79.2274 20.3281V20.8154H71.6154Z" fill="#0A3F2F"/>
<path d="M89.4114 21.2053C88.199 21.2315 87.001 20.9393 85.9364 20.3577C84.9489 19.8084 84.1326 18.9958 83.5781 18.0101C82.998 16.9556 82.7062 15.7664 82.7321 14.5627C82.7076 13.4136 83.0004 12.2801 83.5781 11.287C84.1424 10.3391 84.959 9.56733 85.9364 9.058C87.0106 8.50668 88.2046 8.23077 89.4114 8.25497C90.5923 8.23221 91.7608 8.49994 92.8145 9.0347C93.7684 9.52587 94.5722 10.266 95.141 11.1768C95.7159 12.1222 96.0094 13.2123 95.9871 14.3191C96.0129 15.5652 95.7217 16.7975 95.141 17.8999C94.6022 18.9092 93.7976 19.7512 92.8145 20.3344C91.7803 20.9293 90.6037 21.2304 89.4114 21.2053ZM89.9232 20.2306C90.5211 20.2306 90.9864 19.7842 91.3192 18.8915C91.6519 17.9988 91.8183 16.7275 91.8183 15.0776C91.8183 13.1961 91.5673 11.7517 91.0653 10.7446C90.5634 9.73744 89.8499 9.23387 88.9249 9.23387C88.2918 9.23387 87.7983 9.63574 87.4444 10.4395C87.0905 11.2432 86.9114 12.3881 86.9072 13.8741C86.9072 15.9039 87.1708 17.4712 87.6982 18.5758C88.2255 19.6804 88.9672 20.232 89.9232 20.2306Z" fill="#0A3F2F"/>
</svg>
